<svg width="60" height="60" fill="none" xmlns="http://www.w3.org/2000/svg">
  <path d="M55.565 25.595c.199.574-.114 1.2-.692 1.385l-16.061 5.137a8.904 8.904 0 00-.325-4.653 8.887 8.887 0 00-2.844-4.042l15.93-5.978a1.08 1.08 0 011.4.66l2.592 7.49zm-13.25 27.821a1.08 1.08 0 01-1.526-.256l-9.623-13.869a8.863 8.863 0 004.344-1.679 8.886 8.886 0 003.02-3.911l10.387 13.496c.37.482.273 1.175-.217 1.534l-6.385 4.685zm-35.4-35.037a1.08 1.08 0 011.39-.68l15.872 5.699a8.89 8.89 0 00-2.565 3.893 8.904 8.904 0 00-.193 4.942l-16.277-4.95a1.083 1.083 0 01-.712-1.377l2.485-7.527zM17.83 53.273a1.08 1.08 0 001.526-.256l9.623-13.869a8.862 8.862 0 01-4.345-1.679 8.886 8.886 0 01-3.02-3.911L11.228 47.054a1.084 1.084 0 00.217 1.534l6.385 4.684z" fill="#ABABAB"/>
  <path fill-rule="evenodd" clip-rule="evenodd" d="M29.778 37.98a7.553 7.553 0 10.483-15.097 7.553 7.553 0 00-.483 15.098zm.181-5.661a1.888 1.888 0 10.121-3.774 1.888 1.888 0 00-.12 3.774z" fill="#8B8B8B"/>
  <path d="M30.138 3.212l-4.2 4.075a.486.486 0 00-.147.341l-.266 17.725c-.006.432.577.952 1.01.953 2.163.005 6.973.505 8.05.453.18-.009.173-.206.176-.387l.07-4.718a.485.485 0 00-.15-.36l-2.632-2.503a.486.486 0 01.01-.714l2.47-2.213a.486.486 0 00.01-.715l-2.423-2.286a.486.486 0 01.01-.717l2.726-2.421a.49.49 0 00.164-.356l.025-1.568a.485.485 0 00-.136-.346l-4.08-4.231a.486.486 0 00-.687-.012z" fill="#8B8B8B"/>
</svg>
